<svg width="101" height="106" viewBox="0 0 101 106" fill="none" xmlns="http://www.w3.org/2000/svg">
<path d="M2.27741 55.2735L18.4033 66.3936V98.3608C18.4033 102.241 21.5489 105.387 25.4291 105.387H74.6095C78.4897 105.387 81.6353 102.241 81.6353 98.3608V66.3936L97.7594 55.2735C99.1861 54.29 100.038 52.6679 100.038 50.9351C100.038 49.2023 99.1861 47.5802 97.7594 46.5967L81.6353 35.4802V7.02577C81.6353 3.14555 78.4897 0 74.6095 0H25.4291C21.5489 0 18.4033 3.14555 18.4033 7.02577V35.4802L2.27741 46.5984C0.851436 47.582 0 49.2037 0 50.936C0 52.6683 0.851436 54.2899 2.27741 55.2735V55.2735ZM81.6353 39.7448L95.7659 49.4913C96.2409 49.8192 96.5246 50.3596 96.5246 50.9369C96.5246 51.5141 96.2409 52.0545 95.7659 52.3824L81.6353 62.1272V39.7448ZM63.5281 3.51289L61.2746 5.9157C60.6109 6.62352 59.684 7.02531 58.7137 7.02577H41.3249C40.3542 7.02453 39.4271 6.62292 38.7622 5.9157L36.5105 3.51289H63.5281ZM21.9162 37.3227L22.603 36.8484C23.1883 36.4442 23.472 35.7269 23.3215 35.0317C23.1711 34.3365 22.6162 33.8006 21.9162 33.6745V7.02577C21.9162 5.08566 23.489 3.51289 25.4291 3.51289H31.6943L36.1996 8.31852C37.5299 9.73208 39.3838 10.5351 41.3249 10.5387H58.7137C60.655 10.5364 62.5094 9.73312 63.839 8.31852L68.3443 3.51289H74.6095C76.5496 3.51289 78.1224 5.08566 78.1224 7.02577V33.6745C77.4224 33.8006 76.8675 34.3365 76.717 35.0317C76.5666 35.7269 76.8503 36.4442 77.4356 36.8484L78.1224 37.3227V64.5475L51.0152 83.2449C50.415 83.6585 49.6218 83.6585 49.0216 83.2449L21.9162 64.551V37.3227ZM21.9162 68.8174L47.0333 86.136C48.8372 87.37 51.2137 87.37 53.0175 86.136L78.1224 68.8174V89.5786C78.1224 91.5187 76.5496 93.0915 74.6095 93.0915H25.4291C23.489 93.0915 21.9162 91.5187 21.9162 89.5786V68.8174ZM21.9162 95.6278C22.9795 96.26 24.1921 96.5971 25.4291 96.6044H74.6095C75.8465 96.5971 77.0591 96.26 78.1224 95.6278V98.3608C78.1224 100.301 76.5496 101.874 74.6095 101.874H25.4291C23.489 101.874 21.9162 100.301 21.9162 98.3608V95.6278ZM4.27273 49.4913L18.4033 39.7413V62.1289L4.27097 52.3824C3.79589 52.0545 3.51226 51.5141 3.51226 50.9369C3.51226 50.3596 3.79589 49.8192 4.27097 49.4913H4.27273Z" fill="#F8FFFF"/>
<path d="M38.4639 25.5369C38.8191 25.5361 39.1657 25.4277 39.458 25.226L42.8286 22.9004C43.3626 22.5514 43.6654 21.9404 43.6196 21.3041C43.5739 20.6679 43.1867 20.1064 42.6083 19.8375C42.0299 19.5685 41.3511 19.6343 40.8351 20.0093L37.4662 22.3331C36.8319 22.7693 36.5555 23.5676 36.7844 24.3026C37.0133 25.0376 37.6941 25.5379 38.4639 25.5369V25.5369Z" fill="#F8FFFF"/>
<path d="M30.7239 26.9825L27.3621 29.308C26.5842 29.8656 26.3959 30.9433 26.9387 31.7317C27.4814 32.52 28.5554 32.7286 29.3539 32.2009L32.7245 29.8753C33.5024 29.3177 33.6906 28.24 33.1479 27.4517C32.6051 26.6634 31.5311 26.4547 30.7327 26.9825H30.7239Z" fill="#F8FFFF"/>
<path d="M49.5708 18.2513L50.0204 17.9421L50.4701 18.2513C51.2679 18.7727 52.336 18.5627 52.877 17.7781C53.418 16.9934 53.2346 15.9205 52.4636 15.3601L51.0163 14.3625C50.4166 13.9496 49.6243 13.9496 49.0245 14.3625L47.5772 15.3601C46.8062 15.9205 46.6228 16.9934 47.1639 17.7781C47.7049 18.5627 48.773 18.7727 49.5708 18.2513V18.2513Z" fill="#F8FFFF"/>
<path d="M60.5831 25.226C61.3816 25.7537 62.4556 25.545 62.9983 24.7567C63.5411 23.9684 63.3528 22.8907 62.5749 22.3331L59.2043 20.0093C58.6894 19.6059 57.993 19.5221 57.3971 19.7917C56.8011 20.0613 56.4044 20.6397 56.3674 21.2928C56.3305 21.9459 56.6595 22.5653 57.2213 22.9004L60.5831 25.226Z" fill="#F8FFFF"/>
<path d="M70.6944 32.2009C71.2112 32.557 71.8787 32.6104 72.4455 32.3409C73.0122 32.0714 73.3922 31.52 73.4422 30.8945C73.4923 30.2689 73.2047 29.6641 72.688 29.308L69.3174 26.9825C68.5189 26.4547 67.4449 26.6634 66.9022 27.4517C66.3594 28.24 66.5477 29.3177 67.3256 29.8753L70.6944 32.2009Z" fill="#F8FFFF"/>
<path d="M50.0203 61.4754C50.3495 61.4754 50.672 61.3829 50.9512 61.2084L65.0027 52.4262C65.5163 52.1052 65.8283 51.5423 65.8283 50.9367V35.1288C65.8283 34.5231 65.5163 33.9603 65.0027 33.6393L50.9512 24.8571C50.3816 24.5011 49.6589 24.5011 49.0894 24.8571L35.0378 33.6393C34.5243 33.9603 34.2123 34.5231 34.2123 35.1288V50.9367C34.2123 51.5423 34.5243 52.1052 35.0378 52.4262L49.0894 61.2084C49.3685 61.3829 49.6911 61.4754 50.0203 61.4754V61.4754ZM62.3154 49.9637L51.7767 56.5574V44.8858L62.3154 38.2991V49.9637ZM50.0203 28.4174L60.7574 35.1288L50.0203 41.8401L39.2831 35.1288L50.0203 28.4174ZM48.2638 56.5574L37.7252 49.9707V38.2991L48.2638 44.8858V56.5574Z" fill="#F8FFFF"/>
</svg>
