<svg width="78" height="62" viewBox="0 0 78 62" fill="none" xmlns="http://www.w3.org/2000/svg">
<path d="M72.0175 47.2336L68.101 45.6623V44.662C68.8698 44.2347 69.5601 43.6787 70.141 43.0225C72.6184 43.3149 74.9888 42.326 76.5232 40.3364C78.1101 38.279 78.4402 35.6276 77.4066 33.2438L75.6479 29.1887C75.5156 28.8839 75.4247 28.5625 75.3773 28.2337C74.9983 25.5996 73.6819 23.1892 71.6705 21.4465C69.6591 19.7037 67.0858 18.7441 64.4246 18.7441C61.7634 18.7441 59.1901 19.7037 57.1787 21.4465C55.1675 23.1892 53.8509 25.5995 53.4719 28.2337C53.4245 28.5627 53.3336 28.8841 53.2014 29.1887L51.4428 33.2438C50.4091 35.6275 50.7393 38.2789 52.3261 40.3364C53.6836 42.0964 55.6948 43.0772 57.8556 43.077C58.1343 43.077 58.4158 43.0605 58.6987 43.0273C59.2258 43.6251 59.844 44.1399 60.5326 44.5497V45.6622L56.6162 47.2336C56.3609 47.3361 56.1117 47.4519 55.8687 47.5801C55.1109 46.1864 54.029 44.9675 52.6828 44.0416L47.5816 40.5334C47.6111 39.8891 47.3535 39.2402 46.8287 38.795L44.7559 37.0361C44.5594 36.8692 44.3385 36.7432 44.1052 36.6576V34.2895C46.2962 32.7003 47.8499 30.2858 48.3053 27.5051H48.43C50.6602 27.5051 52.4746 25.6907 52.4746 23.4607C52.4746 22.5086 52.143 21.6327 51.5905 20.9411L52.4266 14.9974C53.0292 10.7127 50.0378 6.70912 45.7579 6.0725L45.5915 6.04786C44.223 3.81425 42.1034 2.20276 39.5602 1.48161L39.254 1.39475C35.8823 0.438735 32.2756 1.00938 29.3589 2.96071C28.822 3.31987 28.6778 4.04632 29.037 4.58312C29.3962 5.11992 30.1225 5.26418 30.6596 4.90486C33.0053 3.33562 35.9052 2.87664 38.6159 3.64535L38.922 3.73222C41.05 4.33562 42.7969 5.74187 43.8409 7.69195C44.559 9.03365 44.8761 10.5091 44.7846 11.9851L43.9917 11.3036C43.2669 10.6807 42.2013 10.6642 41.458 11.2646L40.4179 12.1047H34.4808C30.6282 12.1047 27.4938 15.2392 27.4938 19.0917V19.4166C27.1836 19.4177 26.882 19.4548 26.5919 19.5223C25.2696 15.7997 25.6425 11.6054 27.63 8.17448C27.9537 7.61538 27.7632 6.89985 27.2042 6.57593C26.6453 6.25232 25.9297 6.44274 25.6058 7.00169C23.2022 11.1511 22.8125 16.2526 24.5405 20.7173C23.8731 21.4387 23.4644 22.4027 23.4644 23.4607C23.4644 25.6907 25.2788 27.5051 27.509 27.5051H27.6337C28.0891 30.2858 29.6428 32.7003 31.8338 34.2895V36.6576C31.6005 36.743 31.3796 36.8692 31.1833 37.0359L29.1103 38.795C28.5855 39.2402 28.3279 39.8893 28.3574 40.5334L23.2562 44.0416C22.2195 44.7545 21.3393 45.641 20.6431 46.6474C20.192 46.3981 19.7217 46.1851 19.2348 46.0126L15.7714 44.7859V43.864C17.5355 42.774 18.8038 40.9571 19.157 38.8343H19.6804C21.7326 38.8343 23.4022 37.1647 23.4022 35.1127C23.4022 34.1913 23.065 33.3479 22.5084 32.6972L22.7172 30.2252C23.0074 26.6653 21.4541 23.2885 18.5619 21.1929C15.6697 19.097 11.9771 18.6724 8.68456 20.0566L6.35317 21.0368C2.74324 21.8338 0.330443 25.2929 0.845879 28.9672L1.3674 32.6852C0.804706 33.3374 0.463318 34.1857 0.463318 35.1127C0.463318 37.1647 2.13283 38.8343 4.18506 38.8343H4.70845C5.03877 40.8194 6.16961 42.5363 7.75755 43.6422V44.7859L4.29407 46.0125C3.80905 46.1843 3.3312 46.3995 2.87394 46.6525C2.30859 46.965 2.10367 47.6767 2.4162 48.242C2.62955 48.628 3.02896 48.8459 3.44084 48.8459C3.6322 48.8459 3.82636 48.7988 4.00571 48.6996C4.35084 48.5087 4.71063 48.3465 5.07479 48.2175L8.06759 47.1575C8.67364 48.602 10.1022 49.6191 11.7642 49.6191C13.4263 49.6191 14.8548 48.602 15.4609 47.1575L18.4537 48.2177C18.8301 48.3509 19.1935 48.5166 19.5418 48.7113C19.0772 49.8891 18.8281 51.1582 18.8281 52.4606V59.3998C18.8281 60.0459 19.3518 60.5694 19.9978 60.5694C20.6438 60.5694 21.1675 60.0459 21.1675 59.3998V52.4606C21.1675 49.8661 22.4438 47.4395 24.5815 45.9693L29.453 42.619L31.4497 45.2887C31.8789 45.8626 32.5518 46.1859 33.246 46.1859C33.4621 46.1859 33.6805 46.1545 33.894 46.0895L36.7996 45.2052V59.8895C36.7996 60.5356 37.3233 61.0591 37.9693 61.0591C38.6152 61.0591 39.1389 60.5356 39.1389 59.8895V45.2052L42.0449 46.0897C42.2584 46.1545 42.4764 46.1859 42.6926 46.1859C43.3866 46.1859 44.0597 45.8624 44.4889 45.2887L46.4854 42.619L51.3569 45.9693C53.4947 47.4395 54.7709 49.8661 54.7709 52.4606V59.3998C54.7709 60.0459 55.2946 60.5694 55.9406 60.5694C56.5866 60.5694 57.1103 60.0459 57.1103 59.3998V52.4606C57.1103 51.5394 56.9853 50.6347 56.7483 49.7669C56.9853 49.6286 57.2319 49.5073 57.4869 49.405L60.8832 48.0422C61.4848 49.3373 62.7972 50.2379 64.3167 50.2379C65.8362 50.2379 67.1485 49.3374 67.7502 48.0424L71.1466 49.405C73.2943 50.2665 74.6819 52.3184 74.6819 54.6323V56.6122C74.6819 57.2583 75.2056 57.7819 75.8515 57.7819C76.4975 57.7819 77.0212 57.2583 77.0212 56.6122V54.6323C77.021 51.3572 75.0569 48.4532 72.0175 47.2336V47.2336ZM25.8033 23.4605C25.8033 22.5254 26.5601 21.7644 27.4934 21.7561V25.1647C26.5603 25.1566 25.8033 24.3957 25.8033 23.4605ZM19.6801 36.4948H19.2578V33.73H19.6801C20.4424 33.73 21.0625 34.3502 21.0625 35.1124C21.0625 35.8745 20.4424 36.4948 19.6801 36.4948V36.4948ZM2.80235 35.1125C2.80235 34.3502 3.42243 33.7301 4.18475 33.7301H4.60708V36.4949H4.18475C3.42259 36.4948 2.80235 35.8747 2.80235 35.1125V35.1125ZM6.02768 27.7852C5.2518 28.8566 4.78269 30.0904 4.64841 31.3906H4.18475C3.97015 31.3906 3.76024 31.41 3.55546 31.4449L3.1623 28.6419C2.81264 26.1497 4.47077 23.8051 6.93707 23.304C7.01255 23.2887 7.08647 23.2659 7.15759 23.236L9.59113 22.2127C12.1242 21.1477 14.9645 21.4748 17.1892 23.0867C19.4139 24.699 20.6088 27.2963 20.3858 30.0311L20.267 31.4371C20.0758 31.4067 19.8799 31.3905 19.6801 31.3905H19.2475C19.1467 30.3987 18.3069 29.6221 17.289 29.6221H14.4007C12.3422 29.6221 10.3053 28.937 8.66522 27.6932L8.33428 27.4423C7.98681 27.1787 7.53984 27.0642 7.10893 27.1285C6.67755 27.1927 6.28345 27.4321 6.02768 27.7852V27.7852ZM7.9224 29.1573C7.92209 29.1578 7.92193 29.1581 7.92177 29.1584C7.92193 29.1581 7.92224 29.1578 7.9224 29.1573ZM6.94658 32.1691C6.94658 31.3232 7.15041 30.5057 7.54077 29.7696C9.5328 31.1855 11.9547 31.9617 14.4008 31.9617H16.9184V37.6282C16.9184 40.3776 14.6817 42.6143 11.9325 42.6143C9.18331 42.6143 6.94658 40.3776 6.94658 37.6282V32.1691ZM11.7641 47.2798C10.8446 47.2798 10.0966 46.5316 10.0966 45.6123V44.7205C10.6835 44.8726 11.2987 44.9537 11.9325 44.9537C12.4462 44.9537 12.9475 44.9 13.4317 44.7988V45.6123C13.4317 46.5316 12.6836 47.2798 11.7641 47.2798ZM48.4447 25.1647V21.7561C49.3779 21.7642 50.1348 22.5254 50.1348 23.4605C50.1348 24.3957 49.3779 25.1566 48.4447 25.1647ZM50.1095 14.6712L49.4246 19.5401C49.1108 19.4604 48.7825 19.4175 48.4445 19.4163V19.3216C48.4445 17.4358 47.8613 15.6219 46.805 14.1061C47.2655 12.3323 47.2493 10.506 46.7725 8.77024C49.0319 9.73451 50.4667 12.1327 50.1095 14.6712V14.6712ZM29.8329 25.8066V19.0914C29.8329 16.5286 31.9178 14.4438 34.4805 14.4438H40.8311C41.0985 14.4438 41.3579 14.3521 41.5659 14.1841L42.694 13.2729L43.7418 14.1735C45.2438 15.4645 46.1052 17.3411 46.1052 19.3216V25.8064C46.1052 30.2928 42.4553 33.9427 37.969 33.9427C33.4826 33.9427 29.8329 30.2928 29.8329 25.8066V25.8066ZM37.9691 36.2822C39.308 36.2822 40.5875 36.027 41.7656 35.5673V37.066L37.9691 38.9275L34.1727 37.066V35.5673C35.3506 36.0269 36.6302 36.2822 37.9691 36.2822ZM33.2804 43.8306L30.7608 40.4618L32.6006 38.9005L36.7993 40.9592V42.7597L33.2804 43.8306ZM42.6576 43.8306L39.1388 42.7598V40.9593L43.3374 38.9007L45.1773 40.462L42.6576 43.8306ZM54.1783 38.9077C53.1193 37.5347 52.899 35.7655 53.5889 34.1747L55.3475 30.1196C55.5624 29.6243 55.7104 29.102 55.7873 28.567C56.4013 24.3008 60.1144 21.0836 64.4246 21.0836C68.7348 21.0836 72.4479 24.3008 73.0618 28.567C73.1387 29.1018 73.2867 29.6241 73.5016 30.1196L75.2601 34.1747C75.9499 35.7653 75.7297 37.5347 74.6708 38.9077C73.8866 39.9242 72.7754 40.5501 71.5559 40.7003C71.8077 40.0459 71.972 39.3483 72.0323 38.6212C72.0857 37.9774 71.6069 37.4122 70.9632 37.3589C70.3201 37.3067 69.7544 37.7844 69.7009 38.428C69.4756 41.149 67.1579 43.2804 64.4246 43.2804C61.504 43.2804 59.1282 40.9046 59.1282 37.984V32.3728C59.1282 31.1286 59.4944 29.905 60.1689 28.8663C61.6824 30.0216 63.5481 30.6824 65.4539 30.7328L69.721 30.8454V33.5397C69.721 34.1858 70.2447 34.7094 70.8907 34.7094C71.5367 34.7094 72.0604 34.1858 72.0604 33.5397V30.5286C72.0604 29.4285 71.1989 28.5441 70.0992 28.5152L65.5155 28.3945C64.0313 28.3552 62.5798 27.8177 61.4284 26.8811L61.1261 26.6352C60.7696 26.3453 60.3219 26.2124 59.8648 26.2615C59.408 26.3103 58.9983 26.5349 58.7115 26.8935C57.4714 28.4427 56.7884 30.3887 56.7884 32.3733V37.9844C56.7884 38.94 56.9663 39.8544 57.2884 40.6981C56.071 40.5468 54.9613 39.923 54.1783 38.9077V38.9077ZM64.3165 47.8984C63.5197 47.8984 62.8714 47.2503 62.8714 46.4533V45.4607C63.3731 45.5647 63.8925 45.6199 64.4244 45.6199C64.8795 45.6199 65.326 45.5772 65.7615 45.4986V46.4535C65.7616 47.2503 65.1133 47.8984 64.3165 47.8984V47.8984Z" fill="#1E959B"/>
</svg>
