<svg width="105" height="104" viewBox="0 0 105 104" fill="none" xmlns="http://www.w3.org/2000/svg">
<path d="M33.636 54.0757C34.4631 54.2243 35.2561 53.6753 35.4053 52.8474L36.1201 48.8871L37.3143 52.9347C37.545 53.7167 38.2092 54.137 38.9908 54.175C39.6785 54.1713 40.4593 53.6009 40.653 52.9191L41.8056 48.8761L42.5675 52.8626C42.7252 53.6887 43.5229 54.2308 44.3491 54.0726C45.1752 53.9149 45.7169 53.117 45.559 52.291L43.7619 42.8877C43.4159 41.1889 40.8571 41.1046 40.3844 42.7502L38.9597 47.7479L37.4808 42.7352C36.9892 41.042 34.427 41.2368 34.1011 42.9238L32.4077 52.3064C32.2585 53.1343 32.8084 53.9264 33.636 54.0757V54.0757Z" fill="#F8FFFF"/>
<path d="M14.8771 54.1753C16.4906 54.1753 18.0378 53.5127 19.0793 52.2705C19.6194 51.6258 19.5347 50.6654 18.8898 50.1252C18.2453 49.5851 17.2848 49.6695 16.7445 50.3145C14.8611 52.3012 11.4951 50.3975 11.5825 47.8351C11.5481 45.2365 14.5863 43.6216 16.7177 45.1023C17.4154 45.5736 18.3614 45.3898 18.8323 44.6929C19.303 43.996 19.1199 43.0494 18.423 42.5785C14.2901 39.7322 8.4933 42.8128 8.53656 47.8351C8.53676 51.331 11.381 54.1753 14.8771 54.1753V54.1753Z" fill="#F8FFFF"/>
<path d="M23.3045 54.1752C24.1458 54.1752 24.8275 53.4934 24.8275 52.6523V50.7691L27.3704 53.6584C28.0681 54.2983 28.7845 54.344 29.5198 53.7955C30.1511 53.2399 30.2124 52.2774 29.6569 51.6461L27.5202 49.2185C31.6326 47.4385 30.3879 41.5581 25.8679 41.4945H23.3078C22.4655 41.4927 21.7816 42.1752 21.7816 43.0175V52.6523C21.7816 53.4934 22.4634 54.1752 23.3045 54.1752V54.1752ZM25.8679 44.5402C27.3529 44.6227 27.3519 46.4202 25.8679 46.5024C25.6198 46.5024 25.2358 46.5036 24.8403 46.5054C24.8376 45.8504 24.836 45.1953 24.8354 44.5402H25.8679Z" fill="#F8FFFF"/>
<path d="M67.3983 40.5117V33.6208C67.3284 31.6043 64.4214 31.6059 64.3524 33.6208V40.5117C64.4222 42.5281 67.3292 42.5267 67.3983 40.5117Z" fill="#F8FFFF"/>
<path d="M85.1016 40.5117V33.6208C85.0318 31.6043 82.1248 31.6059 82.0557 33.6208V40.5117C82.1254 42.5281 85.0324 42.5267 85.1016 40.5117Z" fill="#F8FFFF"/>
<path d="M78.2421 38.6596V35.4727C78.0484 30.8078 71.4028 30.8113 71.2109 35.4727V38.6596C71.4047 43.3249 78.0502 43.321 78.2421 38.6596ZM75.1962 38.6596C75.18 39.2791 74.2729 39.2789 74.2568 38.6596V35.4727C74.2731 34.8532 75.18 34.8538 75.1962 35.4727V38.6596Z" fill="#F8FFFF"/>
<path d="M76.2495 28.8068V21.9159C76.1797 19.8993 73.2727 19.9009 73.2036 21.9159V28.8068C73.2735 30.8231 76.1803 30.8217 76.2495 28.8068Z" fill="#F8FFFF"/>
<path d="M69.3909 23.7677C69.1973 19.1026 62.5516 19.106 62.3597 23.7677V26.9545C62.5534 31.6196 69.199 31.6158 69.3909 26.9545V23.7677ZM66.3449 26.9545C66.3287 27.5739 65.4216 27.5736 65.4056 26.9545V23.7677C65.4218 23.1479 66.3289 23.1486 66.3449 23.7677V26.9545Z" fill="#F8FFFF"/>
<path d="M87.0951 23.7677C86.9016 19.1026 80.2559 19.106 80.064 23.7677V26.9545C80.2577 31.6196 86.9032 31.6158 87.0951 26.9545V23.7677ZM84.0492 26.9545C84.033 27.5739 83.1259 27.5736 83.1099 26.9545V23.7677C83.1261 23.1479 84.0332 23.1486 84.0492 23.7677V26.9545Z" fill="#F8FFFF"/>
<path d="M73.2036 45.3258V52.2167C73.2735 54.2333 76.1805 54.2316 76.2495 52.2167V45.3258C76.1797 43.3092 73.2727 43.3108 73.2036 45.3258V45.3258Z" fill="#F8FFFF"/>
<path d="M62.3597 47.178V50.3648C62.5534 55.0299 69.199 55.0261 69.3909 50.3648V47.178C69.1971 42.5128 62.5516 42.5163 62.3597 47.178ZM65.4056 47.178C65.4218 46.5582 66.3289 46.5588 66.3449 47.178V50.3648C66.3287 50.9841 65.4216 50.9839 65.4056 50.3648V47.178Z" fill="#F8FFFF"/>
<path d="M80.064 47.178V50.3648C80.2577 55.0299 86.9032 55.0261 87.0951 50.3648V47.178C86.9016 42.5128 80.2559 42.5163 80.064 47.178ZM83.1099 47.178C83.1261 46.5582 84.0332 46.5588 84.0492 47.178V50.3648C84.033 50.9841 83.1259 50.9839 83.1099 50.3648V47.178Z" fill="#F8FFFF"/>
<path d="M102.249 80.5891C102.248 80.5875 102.247 80.586 102.246 80.5844C98.7481 73.4412 89.8861 69.9751 82.4758 72.7373V60.3149H88.9112C92.7397 60.3149 95.8546 57.2002 95.8546 53.3715V41.454C95.8546 39.485 92.8087 39.485 92.8087 41.454V53.3715C92.8087 55.5206 91.0604 57.269 88.9112 57.269H75.8566C75.5291 57.269 75.2101 57.3748 74.9471 57.5703L68.489 62.3776V58.792C68.489 57.9509 67.8073 57.269 66.966 57.269H60.5426C58.3934 57.269 56.6449 55.5206 56.6449 53.3715V34.577C56.6451 34.5664 56.6451 34.5561 56.6449 34.5455V20.1581C56.6449 18.0089 58.3934 16.2605 60.5426 16.2605H88.911C91.0602 16.2605 92.8085 18.0089 92.8085 20.1581V33.3377C92.8085 35.3068 95.8544 35.3068 95.8544 33.3377V20.1581C95.8544 16.3293 92.7395 13.2146 88.911 13.2146H60.5428C56.7141 13.2146 53.5992 16.3293 53.5992 20.1581V33.0382H8.83222C3.9803 33.0382 0.0332031 36.9853 0.0332031 41.8372V81.5108C0.0332031 85.7097 3.44909 89.1256 7.64797 89.1256H11.2015C13.1706 89.1256 13.1706 86.0796 11.2015 86.0796H7.64797C5.12881 86.0796 3.07911 84.0302 3.07911 81.5108V76.3262H76.7158C74.0961 78.8588 72.3311 82.27 71.901 86.0796H19.779C17.8099 86.0796 17.8099 89.1256 19.779 89.1256H32.381L29.5832 100.953H24.1974C23.3561 100.953 22.6745 101.635 22.6745 102.476C22.6745 103.317 23.3561 103.999 24.1974 103.999H58.3116C59.1529 103.999 59.8345 103.317 59.8345 102.476C59.8345 101.635 59.1529 100.953 58.3116 100.953H52.9258L50.128 89.1256H71.8442C72.0023 91.2538 72.5744 93.2946 73.5501 95.2072C76.3174 100.63 81.8157 103.999 87.8993 103.999C99.7441 104.146 107.758 91.0595 102.249 80.5891V80.5891ZM82.2049 90.7969C82.2043 90.7957 82.2035 90.7943 82.2029 90.7931C80.0182 86.6364 83.2021 81.4495 87.8995 81.5075C90.3129 81.5075 92.495 82.8455 93.5944 84.9996C95.7832 89.1568 92.599 94.3471 87.8995 94.289C85.4862 94.289 83.3041 92.9508 82.2049 90.7969ZM98.7649 80.6557L95.5078 82.3145C94.0452 80.3143 91.8659 78.9784 89.4225 78.5833V74.9308C93.2358 75.3723 96.6376 77.4569 98.7649 80.6557V80.6557ZM3.07911 41.8372C3.07911 38.6648 5.66001 36.0841 8.83222 36.0841H53.5992V53.3715C53.5992 57.2002 56.7141 60.3149 60.5428 60.3149H65.4433V65.4097C65.4433 66.6358 66.8805 67.3721 67.8757 66.6313L76.3614 60.3149H79.4299V73.2803H3.07911V41.8372ZM86.3766 74.9318V78.5845C80.8692 79.3699 77.0894 85.3917 78.908 90.7683L75.6639 92.4204L75.6503 92.4273C72.6397 84.6554 78.2034 75.7473 86.3766 74.9318V74.9318ZM49.7956 100.953H32.7132L35.5107 89.1256H46.9979L49.7956 100.953ZM87.8995 100.953C83.4797 100.953 79.4411 98.76 77.0342 95.1406L80.2915 93.4818C86.7464 101.958 99.9339 95.2671 96.8913 85.0282L99.4598 83.7201L100.149 83.3692C103.358 91.6963 96.8403 101.079 87.8995 100.953Z" fill="#F8FFFF"/>
<path d="M8.42896 28.3444C9.27024 28.3444 9.95192 27.6625 9.95192 26.8215V18.9238H15.9215V26.8215C15.9215 28.7905 18.9674 28.7905 18.9674 26.8215V17.4009C18.9674 16.5598 18.2857 15.8779 17.4444 15.8779H8.42896C7.58768 15.8779 6.90601 16.5598 6.90601 17.4009V26.8215C6.90601 27.6625 7.58768 28.3444 8.42896 28.3444V28.3444Z" fill="#F8FFFF"/>
<path d="M35.996 28.3444C36.8373 28.3444 37.5189 27.6625 37.5189 26.8214V13.1611H43.4885V26.8212C43.4885 28.7903 46.5344 28.7903 46.5344 26.8212V11.6382C46.5344 10.7971 45.8527 10.1152 45.0115 10.1152H35.996C35.1547 10.1152 34.473 10.7971 34.473 11.6382V26.8212C34.473 27.6625 35.1547 28.3444 35.996 28.3444Z" fill="#F8FFFF"/>
<path d="M22.212 28.3445C23.0533 28.3445 23.735 27.6626 23.735 26.8215V3.07765H29.7046V26.8213C29.7046 28.7904 32.7505 28.7904 32.7505 26.8213V1.55469C32.7505 0.713616 32.0688 0.0317383 31.2275 0.0317383H22.212C21.3708 0.0317383 20.6891 0.713616 20.6891 1.55469V26.8213C20.6891 27.6626 21.3708 28.3445 22.212 28.3445V28.3445Z" fill="#F8FFFF"/>
<path d="M45.7467 57.9343H10.1078C8.09119 58.0042 8.09281 60.9112 10.1078 60.9802H45.7467C47.7633 60.9104 47.7617 58.0036 45.7467 57.9343Z" fill="#F8FFFF"/>
<path d="M29.4497 64.5358H10.1078C8.09119 64.6056 8.09281 67.5126 10.1078 67.5817H29.4497C31.4663 67.5118 31.4649 64.6048 29.4497 64.5358Z" fill="#F8FFFF"/>
</svg>
