<svg width="105" height="105" viewBox="0 0 105 105" fill="none" xmlns="http://www.w3.org/2000/svg">
<path d="M48.9139 97.828H55.9016C56.8664 97.828 57.6485 97.0458 57.6485 96.081C57.6485 95.1163 56.8664 94.3341 55.9016 94.3341H48.9139C47.9492 94.3341 47.167 95.1163 47.167 96.081C47.167 97.0458 47.9492 97.828 48.9139 97.828Z" fill="#F8FFFF"/>
<path d="M22.7099 26.2039C23.6747 26.2039 24.4569 25.4217 24.4569 24.457V13.9754H80.3585V27.9508C80.3585 28.9156 81.1407 29.6978 82.1055 29.6978C83.0702 29.6978 83.8524 28.9156 83.8524 27.9508V6.98771C83.8524 3.84324 79.8205 0 75.1178 0H29.6977C24.8761 0.00567751 20.9687 3.91312 20.963 8.73464V24.457C20.963 25.4217 21.7452 26.2039 22.7099 26.2039ZM24.4569 8.73464C24.4569 5.8402 26.8032 3.49385 29.6977 3.49385H75.1178C78.1452 3.49385 80.3585 5.93955 80.3585 6.98771V10.4816H24.4569V8.73464V8.73464Z" fill="#F8FFFF"/>
<path d="M82.1055 76.8649C81.1407 76.8649 80.3585 77.6471 80.3585 78.6118V87.3464H24.4569V80.3587C24.4569 79.394 23.6747 78.6118 22.7099 78.6118C21.7452 78.6118 20.963 79.394 20.963 80.3587V96.0811C20.9687 100.903 24.8761 104.81 29.6977 104.816H75.1178C79.9393 104.81 83.8467 100.903 83.8524 96.0811V78.6118C83.8524 77.6471 83.0702 76.8649 82.1055 76.8649ZM80.3585 96.0811C80.3585 98.9755 78.0122 101.322 75.1178 101.322H29.6977C26.8032 101.322 24.4569 98.9755 24.4569 96.0811V90.8403H80.3585V96.0811Z" fill="#F8FFFF"/>
<path d="M48.9139 5.24078H45.42C44.4553 5.24078 43.6731 6.02297 43.6731 6.98771C43.6731 7.95245 44.4553 8.73464 45.42 8.73464H48.9139C49.8786 8.73464 50.6608 7.95245 50.6608 6.98771C50.6608 6.02297 49.8786 5.24078 48.9139 5.24078Z" fill="#F8FFFF"/>
<path d="M59.3955 5.24078H55.9016C54.9369 5.24078 54.1547 6.02297 54.1547 6.98771C54.1547 7.95245 54.9369 8.73464 55.9016 8.73464H59.3955C60.3602 8.73464 61.1424 7.95245 61.1424 6.98771C61.1424 6.02297 60.3602 5.24078 59.3955 5.24078Z" fill="#F8FFFF"/>
<path d="M104.414 33.8223C104.082 33.4225 103.589 33.1912 103.069 33.1916H57.2153L56.3243 27.184C55.9311 24.6208 53.7326 22.7238 51.1395 22.7101H43.6731V26.2039H51.1395C52.0062 26.2033 52.7423 26.8383 52.8689 27.6958L58.9727 68.8971C59.366 71.4603 61.5645 73.3572 64.1576 73.371H68.4515C69.3981 76.0879 72.3679 77.523 75.0846 76.5766C76.5863 76.0534 77.767 74.8729 78.2902 73.371H85.9208C86.8855 76.0999 89.88 77.53 92.6087 76.565C95.3374 75.6001 96.7677 72.6058 95.8027 69.8771C94.838 67.1482 91.8435 65.7181 89.1148 66.6831C87.6223 67.2107 86.4484 68.3848 85.9208 69.8771H78.2902C77.3436 67.1602 74.3738 65.7251 71.6571 66.6715C70.1554 67.1947 68.9747 68.3752 68.4515 69.8771H64.1576C63.2928 69.8725 62.5596 69.2402 62.4281 68.3853L61.8726 64.6363H97.8278C98.6675 64.6357 99.3881 64.0378 99.5433 63.2126L104.784 35.2618C104.881 34.7508 104.745 34.223 104.414 33.8223ZM90.8401 69.8771C91.8049 69.8771 92.5871 70.6593 92.5871 71.6241C92.5871 72.5888 91.8049 73.371 90.8401 73.371C89.8754 73.371 89.0932 72.5888 89.0932 71.6241C89.0932 70.6593 89.8754 69.8771 90.8401 69.8771ZM73.3709 69.8771C74.3356 69.8771 75.1178 70.6593 75.1178 71.6241C75.1178 72.5888 74.3356 73.371 73.3709 73.371C72.4061 73.371 71.6239 72.5888 71.6239 71.6241C71.6239 70.6593 72.4061 69.8771 73.3709 69.8771ZM96.3779 61.1425H61.3555L57.7341 36.6855H100.972L96.3779 61.1425Z" fill="#F8FFFF"/>
<path d="M45.42 52.4078C45.42 39.8653 35.2524 29.6978 22.7099 29.6978C10.1674 29.6978 -0.00012207 39.8653 -0.00012207 52.4078C-0.00012207 64.9503 10.1674 75.1179 22.7099 75.1179C35.2463 75.1034 45.4056 64.9442 45.42 52.4078ZM3.49373 52.4078C3.49373 41.795 12.0971 33.1916 22.7099 33.1916C33.3227 33.1916 41.9261 41.795 41.9261 52.4078C41.9261 63.0206 33.3227 71.624 22.7099 71.624C12.1024 71.6115 3.50618 63.0154 3.49373 52.4078Z" fill="#F8FFFF"/>
<path d="M24.4569 66.3833V64.3883C28.1868 63.4283 30.4323 59.6264 29.4724 55.8964C28.6784 52.8118 25.8953 50.657 22.71 50.6609C20.7803 50.6609 19.2161 49.0968 19.2161 47.1671C19.2161 45.2374 20.7803 43.6732 22.71 43.6732C24.6397 43.6732 26.2039 45.2374 26.2039 47.1671C26.2039 48.1318 26.986 48.914 27.9508 48.914C28.9155 48.914 29.6977 48.1318 29.6977 47.1671C29.6857 43.9905 27.5328 41.2216 24.4569 40.4274V38.4324C24.4569 37.4677 23.6747 36.6855 22.71 36.6855C21.7453 36.6855 20.9631 37.4677 20.9631 38.4324V40.4274C17.2332 41.3873 14.9877 45.1893 15.9476 48.9192C16.7416 52.0039 19.5247 54.1587 22.71 54.1548C24.6397 54.1548 26.2039 55.7189 26.2039 57.6486C26.2039 59.5783 24.6397 61.1425 22.71 61.1425C20.7803 61.1425 19.2161 59.5783 19.2161 57.6486C19.2161 56.6839 18.434 55.9017 17.4692 55.9017C16.5045 55.9017 15.7223 56.6839 15.7223 57.6486C15.7343 60.8252 17.8872 63.5941 20.9631 64.3883V66.3833C20.9631 67.348 21.7453 68.1302 22.71 68.1302C23.6747 68.1302 24.4569 67.348 24.4569 66.3833Z" fill="#F8FFFF"/>
<path d="M62.8893 41.9263H87.3463C88.311 41.9263 89.0932 41.1441 89.0932 40.1794C89.0932 39.2146 88.311 38.4324 87.3463 38.4324H62.8893C61.9245 38.4324 61.1423 39.2146 61.1423 40.1794C61.1423 41.1441 61.9245 41.9263 62.8893 41.9263Z" fill="#F8FFFF"/>
<path d="M92.587 41.9263H96.0809C97.0456 41.9263 97.8278 41.1441 97.8278 40.1794C97.8278 39.2146 97.0456 38.4324 96.0809 38.4324H92.587C91.6223 38.4324 90.8401 39.2146 90.8401 40.1794C90.8401 41.1441 91.6223 41.9263 92.587 41.9263Z" fill="#F8FFFF"/>
</svg>
