<svg width="109" height="109" viewBox="0 0 109 109" fill="none" xmlns="http://www.w3.org/2000/svg">
<path d="M2.12334e-06 72.6667C-0.00112003 74.3073 0.442559 75.9176 1.28383 77.3261C2.1251 78.7346 3.33249 79.8888 4.77754 80.6657C6.22258 81.4426 7.85121 81.8132 9.49014 81.7381C11.1291 81.663 12.717 81.145 14.0849 80.2392L28.7506 94.9048C28.0132 96.0217 27.5318 97.2879 27.3409 98.6125C27.1501 99.9372 27.2545 101.288 27.6466 102.567C28.0387 103.847 28.7089 105.024 29.6091 106.014C30.5094 107.005 31.6174 107.784 32.854 108.296C34.0906 108.808 35.425 109.04 36.7618 108.976C38.0987 108.912 39.4048 108.553 40.5868 107.925C41.7687 107.298 42.7973 106.416 43.5987 105.344C44.4002 104.273 44.9548 103.037 45.2228 101.726H63.7501C64.0166 103.038 64.5703 104.276 65.3714 105.35C66.1726 106.423 67.2014 107.307 68.384 107.936C69.5667 108.565 70.8739 108.925 72.212 108.989C73.5501 109.054 74.886 108.822 76.1237 108.309C77.3614 107.797 78.4704 107.017 79.3712 106.025C80.272 105.033 80.9422 103.855 81.3338 102.574C81.7254 101.292 81.8287 99.9405 81.6363 98.6148C81.4438 97.289 80.9605 96.0223 80.2208 94.9053L88.1212 87.0049L85.5527 84.4364L77.6523 92.3368C76.4135 91.5163 74.9922 91.0125 73.5132 90.8698C72.0342 90.727 70.5428 90.9496 69.17 91.518C67.7971 92.0864 66.5849 92.9832 65.6397 94.1297C64.6945 95.2761 64.0452 96.6371 63.749 98.0931H45.2228C44.7359 95.7288 43.3298 93.6546 41.3137 92.3268L42.3698 89.6865L38.9972 88.3376L37.9422 90.9753C35.6419 90.5553 33.2684 91.0436 31.3207 92.3375L16.655 77.6718C17.9489 75.7241 18.4371 73.3506 18.0172 71.0503L31.552 65.6365L30.203 62.2638L16.6634 67.6778C15.3357 65.6617 13.2615 64.2555 10.8971 63.7685V45.2424C13.2615 44.7554 15.3357 43.3492 16.6634 41.333L30.2008 46.7482L31.5497 43.3756L18.0147 37.9606C18.4346 35.6603 17.9464 33.2868 16.6525 31.3391L27.9582 20.0334L25.3909 17.4646L14.0851 28.7703C12.9682 28.0328 11.7021 27.5513 10.3774 27.3604C9.05262 27.1694 7.70205 27.2738 6.42234 27.6659C5.14262 28.0579 3.96543 28.7281 2.97503 29.6284C1.98463 30.5287 1.20552 31.6368 0.693487 32.8734C0.181453 34.11 -0.0508433 35.4446 0.0132293 36.7815C0.0773019 38.1184 0.436158 39.4246 1.06411 40.6065C1.69206 41.7885 2.57356 42.817 3.64552 43.6185C4.71748 44.4199 5.95337 44.9745 7.26471 45.2424V63.7697C5.2153 64.1909 3.37377 65.3059 2.05047 66.9265C0.727165 68.5471 0.00299561 70.5744 2.12334e-06 72.6667ZM72.6471 94.4608C73.7247 94.4608 74.7782 94.7803 75.6742 95.379C76.5702 95.9777 77.2685 96.8287 77.6809 97.8243C78.0933 98.8199 78.2012 99.9154 77.991 100.972C77.7807 102.029 77.2618 103 76.4998 103.762C75.7378 104.524 74.767 105.043 73.7101 105.253C72.6532 105.463 71.5577 105.355 70.5621 104.943C69.5665 104.531 68.7155 103.832 68.1168 102.936C67.5181 102.04 67.1986 100.987 67.1986 99.9093C67.2003 98.4648 67.7749 97.0799 68.7963 96.0585C69.8177 95.0371 71.2026 94.4625 72.6471 94.4608V94.4608ZM36.3236 94.4608C37.4012 94.4608 38.4546 94.7803 39.3506 95.379C40.2466 95.9777 40.945 96.8287 41.3574 97.8243C41.7697 98.8199 41.8776 99.9154 41.6674 100.972C41.4572 102.029 40.9383 103 40.1763 103.762C39.4143 104.524 38.4434 105.043 37.3865 105.253C36.3296 105.463 35.2341 105.355 34.2385 104.943C33.2429 104.531 32.392 103.832 31.7933 102.936C31.1946 102.04 30.875 100.987 30.875 99.9093C30.8767 98.4648 31.4513 97.0799 32.4727 96.0585C33.4942 95.0371 34.879 94.4625 36.3236 94.4608ZM3.63236 36.3431C3.63236 35.2655 3.95191 34.2121 4.5506 33.3161C5.14929 32.42 6.00024 31.7217 6.99583 31.3093C7.99142 30.8969 9.08694 30.789 10.1438 30.9993C11.2008 31.2095 12.1716 31.7284 12.9336 32.4904C13.6956 33.2524 14.2145 34.2232 14.4247 35.2801C14.635 36.337 14.5271 37.4326 14.1147 38.4282C13.7023 39.4237 13.0039 40.2747 12.1079 40.8734C11.2119 41.4721 10.1585 41.7916 9.08089 41.7916C7.63637 41.7899 6.25149 41.2154 5.23005 40.1939C4.20862 39.1725 3.63404 37.7876 3.63236 36.3431V36.3431ZM9.08089 67.2181C10.1585 67.2181 11.2119 67.5377 12.1079 68.1364C13.0039 68.7351 13.7023 69.586 14.1147 70.5816C14.5271 71.5772 14.635 72.6727 14.4247 73.7296C14.2145 74.7865 13.6956 75.7574 12.9336 76.5193C12.1716 77.2813 11.2008 77.8003 10.1438 78.0105C9.08694 78.2207 7.99142 78.1128 6.99583 77.7004C6.00024 77.2881 5.14929 76.5897 4.5506 75.6937C3.95191 74.7977 3.63236 73.7443 3.63236 72.6667C3.63404 71.2221 4.20862 69.8373 5.23005 68.8158C6.25149 67.7944 7.63637 67.2198 9.08089 67.2181V67.2181ZM108.971 36.3431C108.972 34.7024 108.528 33.0922 107.687 31.6836C106.846 30.2751 105.638 29.121 104.193 28.3441C102.748 27.5672 101.119 27.1965 99.4805 27.2716C97.8416 27.3467 96.2537 27.8647 94.8858 28.7705L80.2201 14.1049C80.958 12.9881 81.4398 11.7219 81.6311 10.397C81.8223 9.07211 81.7182 7.72135 81.3262 6.44143C80.9343 5.1615 80.2641 3.98408 79.3638 2.99348C78.4635 2.00288 77.3553 1.2236 76.1185 0.711467C74.8818 0.199331 73.5471 -0.0330004 72.21 0.0311113C70.873 0.095223 69.5666 0.454191 68.3845 1.08231C67.2025 1.71043 66.1739 2.59216 65.3725 3.66436C64.5711 4.73655 64.0167 5.97269 63.749 7.28425H45.2228C44.8671 5.52969 44.0012 3.91923 42.7338 2.65485C41.4664 1.39048 39.8538 0.528474 38.0984 0.17696C36.343 -0.174554 34.5229 7.1122e-05 32.8663 0.678933C31.2098 1.35779 29.7905 2.51067 28.7866 3.99296C27.7827 5.47525 27.2388 7.22097 27.2232 9.01116C27.2075 10.8013 27.7208 12.5563 28.6986 14.0559C29.6764 15.5556 31.0753 16.7331 32.7197 17.4408C34.3642 18.1485 36.1809 18.355 37.9422 18.0342L38.9972 20.672L42.3698 19.323L41.3126 16.683C43.3291 15.3554 44.7356 13.2812 45.2228 10.9166H63.7501C64.2371 13.281 65.6432 15.3552 67.6592 16.683L65.8766 21.1394L69.2491 22.4884L71.0307 18.0344C73.331 18.4544 75.7045 17.9661 77.6523 16.6723L92.3179 31.3379C91.0241 33.2857 90.5358 35.6592 90.9558 37.9595L77.421 43.3733L78.7699 46.7459L92.3073 41.3308C92.9645 42.3295 93.812 43.1889 94.8014 43.8601C95.7908 44.5313 96.9027 45.0009 98.0736 45.2424V63.7697C95.7092 64.2567 93.635 65.6629 92.3073 67.679L86.9427 65.5329L85.5938 68.9056L90.9558 71.0503C90.5358 73.3506 91.0241 75.7241 92.3179 77.6718L88.731 81.2588L91.2995 83.8273L94.8865 80.2403C96.0034 80.9781 97.2696 81.4597 98.5944 81.6508C99.9193 81.8418 101.27 81.7376 102.55 81.3455C103.83 80.9534 105.007 80.2832 105.997 79.3828C106.988 78.4825 107.767 77.3742 108.279 76.1375C108.791 74.9007 109.023 73.5661 108.959 72.229C108.895 70.892 108.536 69.5857 107.908 68.4037C107.28 67.2217 106.398 66.1932 105.326 65.3919C104.254 64.5905 103.017 64.0362 101.706 63.7685V45.2424C103.756 44.821 105.598 43.7058 106.921 42.0847C108.244 40.4636 108.968 38.4357 108.971 36.3431V36.3431ZM36.3236 14.549C35.2459 14.549 34.1925 14.2294 33.2965 13.6307C32.4005 13.032 31.7022 12.1811 31.2898 11.1855C30.8774 10.1899 30.7695 9.09438 30.9797 8.03747C31.19 6.98056 31.7089 6.00972 32.4709 5.24773C33.2329 4.48574 34.2037 3.96682 35.2606 3.75658C36.3175 3.54635 37.413 3.65425 38.4086 4.06664C39.4042 4.47902 40.2552 5.17738 40.8539 6.07338C41.4525 6.96939 41.7721 8.02281 41.7721 9.10043C41.7704 10.545 41.1958 11.9298 40.1744 12.9513C39.153 13.9727 37.7681 14.5473 36.3236 14.549V14.549ZM72.6471 14.549C71.5695 14.549 70.5161 14.2294 69.6201 13.6307C68.7241 13.032 68.0257 12.1811 67.6133 11.1855C67.201 10.1899 67.093 9.09438 67.3033 8.03747C67.5135 6.98056 68.0324 6.00972 68.7944 5.24773C69.5564 4.48574 70.5273 3.96682 71.5842 3.75658C72.6411 3.54635 73.7366 3.65425 74.7322 4.06664C75.7278 4.47902 76.5787 5.17738 77.1774 6.07338C77.7761 6.96939 78.0957 8.02281 78.0957 9.10043C78.094 10.545 77.5194 11.9298 76.498 12.9513C75.4765 13.9727 74.0916 14.5473 72.6471 14.549V14.549ZM105.338 72.6667C105.338 73.7443 105.019 74.7977 104.42 75.6937C103.821 76.5897 102.97 77.2881 101.975 77.7004C100.979 78.1128 99.8838 78.2207 98.8268 78.0105C97.7699 77.8003 96.7991 77.2813 96.0371 76.5193C95.2751 75.7574 94.7562 74.7865 94.546 73.7296C94.3357 72.6727 94.4436 71.5772 94.856 70.5816C95.2684 69.586 95.9667 68.7351 96.8628 68.1364C97.7588 67.5377 98.8122 67.2181 99.8898 67.2181C101.334 67.2198 102.719 67.7944 103.741 68.8158C104.762 69.8373 105.337 71.2221 105.338 72.6667ZM99.8898 41.7916C98.8122 41.7916 97.7588 41.4721 96.8628 40.8734C95.9667 40.2747 95.2684 39.4237 94.856 38.4282C94.4436 37.4326 94.3357 36.337 94.546 35.2801C94.7562 34.2232 95.2751 33.2524 96.0371 32.4904C96.7991 31.7284 97.7699 31.2095 98.8268 30.9993C99.8838 30.789 100.979 30.8969 101.975 31.3093C102.97 31.7217 103.821 32.42 104.42 33.3161C105.019 34.2121 105.338 35.2655 105.338 36.3431C105.337 37.7876 104.762 39.1725 103.741 40.1939C102.719 41.2154 101.334 41.7899 99.8898 41.7916V41.7916ZM38.1397 38.1593V79.9314C38.1409 80.8944 38.5239 81.8176 39.2049 82.4986C39.8858 83.1795 40.8091 83.5626 41.7721 83.5637H61.7501V87.1961H41.7721C39.846 87.1939 37.9995 86.4278 36.6376 85.0659C35.2756 83.704 34.5096 81.8574 34.5074 79.9314V38.1593H38.1397ZM79.9118 81.7475V61.8985C79.9145 60.9442 79.7278 59.9987 79.3625 59.117C78.9973 58.2353 78.4609 57.4347 77.7842 56.7617L74.4633 53.441V66.4658L77.5637 69.5662L74.9952 72.1347L71.3629 68.5024L65.2264 62.366C65.0373 62.1769 64.8128 62.0269 64.5657 61.9246C64.3186 61.8223 64.0538 61.7696 63.7864 61.7696C63.519 61.7696 63.2542 61.8223 63.0071 61.9247C62.76 62.0271 62.5355 62.1771 62.3464 62.3662C62.1574 62.5553 62.0074 62.7798 61.905 63.0269C61.8027 63.274 61.7501 63.5388 61.7501 63.8063C61.7501 64.0737 61.8028 64.3385 61.9052 64.5856C62.0075 64.8326 62.1575 65.0571 62.3467 65.2462L68.4829 71.3824C68.7798 71.6793 68.9647 72.0699 69.0061 72.4877C69.0475 72.9055 68.9428 73.3248 68.7099 73.6742C67.7862 75.0638 67.2452 76.6725 67.1416 78.3379C67.038 80.0033 67.3753 81.6666 68.1196 83.1601L68.8234 84.5676C68.9494 84.8198 69.0149 85.0979 69.0148 85.3799V87.1961H65.3824V85.8087L64.8702 84.7844C63.9544 82.9466 63.4822 80.9197 63.4917 78.8663C63.5011 76.813 63.9918 74.7904 64.9245 72.9611L59.7779 67.8145C58.7224 66.7498 58.1316 65.3103 58.1348 63.811C58.1381 62.3117 58.7352 60.8748 59.7953 59.8147C60.8555 58.7545 62.2925 58.1576 63.7918 58.1544C65.291 58.1512 66.7305 58.7421 67.7952 59.7977L70.8309 62.8334V30.8946C70.8298 29.9315 70.4467 29.0083 69.7658 28.3274C69.0848 27.6464 68.1616 27.2633 67.1986 27.2622H62.8725L61.5582 29.8907C61.4074 30.1923 61.1755 30.446 60.8886 30.6233C60.6017 30.8006 60.2711 30.8945 59.9339 30.8946H49.0368C48.6995 30.8945 48.369 30.8006 48.0821 30.6233C47.7952 30.446 47.5633 30.1923 47.4125 29.8907L46.0982 27.2622H41.7721C40.8091 27.2633 39.8858 27.6464 39.2049 28.3274C38.5239 29.0083 38.1409 29.9315 38.1397 30.8946V34.5269H34.5074V30.8946C34.5096 28.9685 35.2756 27.122 36.6376 25.76C37.9995 24.3981 39.846 23.632 41.7721 23.6298H67.1986C69.1246 23.632 70.9712 24.3981 72.3331 25.76C73.6951 27.122 74.4611 28.9685 74.4633 30.8946V48.304L80.3525 54.1932C81.3675 55.2027 82.1723 56.4035 82.7201 57.7262C83.268 59.0488 83.5481 60.4669 83.5442 61.8985V81.7475H79.9118ZM50.853 76.299H58.1177V79.9314H50.853V76.299ZM58.6496 53.973C57.5443 52.8701 56.0467 52.2507 54.4853 52.2507C52.924 52.2507 51.4263 52.8701 50.3211 53.973L47.7525 51.4044C49.5396 49.6214 51.9609 48.6201 54.4853 48.6201C57.0098 48.6201 59.4311 49.6214 61.2181 51.4044L58.6496 53.973ZM64.0981 49.4057C62.8358 48.1434 61.3371 47.142 59.6878 46.4588C58.0384 45.7756 56.2706 45.424 54.4853 45.424C52.7001 45.424 50.9323 45.7756 49.2829 46.4588C47.6336 47.142 46.1349 48.1434 44.8725 49.4057L42.304 46.8374C45.5372 43.6115 49.918 41.7998 54.4853 41.7998C59.0527 41.7998 63.4335 43.6115 66.6667 46.8374L64.0981 49.4057ZM56.3015 59.9534V63.5858H52.6692V59.9534H56.3015ZM45.4045 59.9534H49.0368V63.5858H45.4045V59.9534Z" fill="#F8FFFF"/>
</svg>
