<svg width="80" height="80" viewBox="0 0 80 80" fill="none" xmlns="http://www.w3.org/2000/svg">
<path d="M62.6562 0H8.90625C6.32156 0 4.21875 2.10281 4.21875 4.6875V75.3125C4.21875 77.8972 6.32156 80 8.90625 80H44.2188C45.0816 80 45.7812 79.3003 45.7812 78.4375C45.7812 77.5747 45.0816 76.875 44.2188 76.875H8.90625C8.04469 76.875 7.34375 76.1741 7.34375 75.3125V4.6875C7.34375 3.82594 8.04469 3.125 8.90625 3.125H62.6562C63.5178 3.125 64.2188 3.82594 64.2188 4.6875V35.8503C64.2188 36.7131 64.9184 37.4128 65.7812 37.4128C66.6441 37.4128 67.3438 36.7131 67.3438 35.8503V4.6875C67.3438 2.10281 65.2409 0 62.6562 0Z" fill="#1E959B"/>
<path d="M66.8858 40.1453C66.5953 39.8545 66.1922 39.6875 65.7812 39.6875C65.3703 39.6875 64.9672 39.8545 64.6766 40.1453C64.3859 40.4361 64.2188 40.8391 64.2188 41.25C64.2188 41.6609 64.3858 42.0641 64.6766 42.3545C64.9672 42.6452 65.3703 42.8125 65.7812 42.8125C66.1922 42.8125 66.5953 42.6453 66.8858 42.3545C67.1766 42.0641 67.3438 41.6609 67.3438 41.25C67.3438 40.8391 67.1766 40.4359 66.8858 40.1453Z" fill="#1E959B"/>
<path d="M15.0108 8.89531C14.7203 8.60453 14.3172 8.4375 13.9062 8.4375C13.4953 8.4375 13.0922 8.60453 12.8016 8.89531C12.5109 9.18609 12.3438 9.58906 12.3438 10C12.3438 10.4109 12.5108 10.8141 12.8016 11.1045C13.0922 11.3953 13.4953 11.5625 13.9062 11.5625C14.3172 11.5625 14.7203 11.3953 15.0108 11.1045C15.3016 10.8141 15.4688 10.4109 15.4688 10C15.4688 9.58906 15.3016 9.18594 15.0108 8.89531Z" fill="#1E959B"/>
<path d="M57.6562 18.4375C56.7934 18.4375 56.0938 19.1372 56.0938 20V38.4375H50.4688V19.5991L58.862 11.2058C59.4722 10.5956 59.4722 9.60626 58.862 8.99595C58.2517 8.38595 57.2627 8.38595 56.6522 8.99595L40.1628 25.4855L30.6198 15.9427C30.0095 15.3327 29.0205 15.3327 28.41 15.9427L15.4688 28.8839V16.2977C15.4688 15.4349 14.7691 14.7352 13.9062 14.7352C13.0434 14.7352 12.3438 15.4349 12.3438 16.2977V40C12.3438 40.8628 13.0434 41.5625 13.9062 41.5625H57.6562C58.5191 41.5625 59.2188 40.8628 59.2188 40V20C59.2188 19.1372 58.5191 18.4375 57.6562 18.4375ZM21.0938 38.4375H15.4688V33.3036L21.0938 27.6786V38.4375ZM29.8438 38.4375H24.2188V24.5535L29.515 19.2572L29.8438 19.586V38.4375ZM38.5938 38.4375H32.9688V22.7111L38.5938 28.3361V38.4375ZM47.3438 38.4375H41.7188V28.3492L47.3438 22.7242V38.4375Z" fill="#1E959B"/>
<path d="M28.125 45.9375H13.9062C13.0434 45.9375 12.3438 46.6372 12.3438 47.5C12.3438 48.3628 13.0434 49.0625 13.9062 49.0625H28.125C28.9878 49.0625 29.6875 48.3628 29.6875 47.5C29.6875 46.6372 28.9878 45.9375 28.125 45.9375Z" fill="#1E959B"/>
<path d="M28.125 53.4375H13.9062C13.0434 53.4375 12.3438 54.1372 12.3438 55C12.3438 55.8628 13.0434 56.5625 13.9062 56.5625H28.125C28.9878 56.5625 29.6875 55.8628 29.6875 55C29.6875 54.1372 28.9878 53.4375 28.125 53.4375Z" fill="#1E959B"/>
<path d="M28.125 60.9375H13.9062C13.0434 60.9375 12.3438 61.6372 12.3438 62.5C12.3438 63.3628 13.0434 64.0625 13.9062 64.0625H28.125C28.9878 64.0625 29.6875 63.3628 29.6875 62.5C29.6875 61.6372 28.9878 60.9375 28.125 60.9375Z" fill="#1E959B"/>
<path d="M28.125 68.4375H13.9062C13.0434 68.4375 12.3438 69.1372 12.3438 70C12.3438 70.8628 13.0434 71.5625 13.9062 71.5625H28.125C28.9878 71.5625 29.6875 70.8628 29.6875 70C29.6875 69.1372 28.9878 68.4375 28.125 68.4375Z" fill="#1E959B"/>
<path d="M59.2189 46.875C55.214 46.875 51.5368 48.304 48.6698 50.6786L48.6459 50.6546V47.2959C48.6459 46.4331 47.9462 45.7334 47.0834 45.7334C46.2206 45.7334 45.5209 46.4331 45.5209 47.2959V47.5296L44.1823 46.1911C43.572 45.5811 42.5829 45.5811 41.9725 46.1911C41.3623 46.8012 41.3623 47.7906 41.9725 48.4009L43.3111 49.7395H43.0773C42.2145 49.7395 41.5148 50.4392 41.5148 51.302C41.5148 52.1648 42.2145 52.8645 43.0773 52.8645H46.4361L46.46 52.8884C44.0854 55.7554 42.6564 59.4326 42.6564 63.4375C42.6564 72.57 50.0864 80 59.2189 80C68.3514 80 75.7814 72.57 75.7814 63.4375C75.7814 54.305 68.3514 46.875 59.2189 46.875ZM59.2189 76.875C51.8093 76.875 45.7814 70.847 45.7814 63.4375C45.7814 60.2946 46.8687 57.4028 48.6833 55.1117L50.91 57.3384C49.6518 59.0478 48.9064 61.1568 48.9064 63.4375C48.9064 69.1239 53.5325 73.75 59.2189 73.75C64.9053 73.75 69.5314 69.1239 69.5314 63.4375C69.5314 57.7511 64.9053 53.125 59.2189 53.125C56.9383 53.125 54.8292 53.8704 53.1198 55.1286L50.8931 52.9018C53.1842 51.0873 56.0761 50 59.2189 50C66.6284 50 72.6564 56.0279 72.6564 63.4375C72.6564 70.847 66.6284 76.875 59.2189 76.875ZM59.2189 68.125C61.8036 68.125 63.9064 66.0221 63.9064 63.4375C63.9064 60.8528 61.8036 58.75 59.2189 58.75C58.4962 58.75 57.8112 58.9146 57.1992 59.2081L55.3659 57.3748C56.4804 56.6639 57.8018 56.25 59.2189 56.25C63.182 56.25 66.4064 59.4743 66.4064 63.4375C66.4064 67.4006 63.182 70.625 59.2189 70.625C55.2558 70.625 52.0314 67.4006 52.0314 63.4375C52.0314 62.0204 52.4453 60.699 53.1561 59.5845L54.9895 61.4178C54.6961 62.0298 54.5314 62.7146 54.5314 63.4375C54.5314 66.0221 56.6342 68.125 59.2189 68.125ZM59.3151 61.8798C60.1318 61.93 60.7814 62.6084 60.7814 63.4375C60.7814 64.299 60.0804 65 59.2189 65C58.3898 65 57.7114 64.3504 57.6612 63.5337C57.6933 63.5357 57.7251 63.5384 57.7573 63.5384C58.1573 63.5384 58.557 63.3857 58.8622 63.0807C59.1917 62.7512 59.3415 62.3112 59.3151 61.8798Z" fill="#1E959B"/>
</svg>
