<svg width="78" height="78" viewBox="0 0 78 78" fill="none" xmlns="http://www.w3.org/2000/svg">
<path d="M72.95 49.9725C72.5712 49.065 72.7725 48.0337 73.4613 47.3437L75.28 45.5238L69.975 40.2187L68.1538 42.0387C67.465 42.7287 66.4325 42.9288 65.4775 42.5288C64.58 42.1588 64 41.2913 64 40.3188V37.75H61.4363C61.3225 35.7337 60.9487 33.785 60.3287 31.9387L74.7937 17.4738C76.7 15.5675 77.75 13.0337 77.75 10.3388C77.75 4.77625 73.2238 0.25 67.6613 0.25C64.9663 0.25 62.4325 1.3 60.5275 3.205L46.0775 17.6563C44.2087 17.0288 42.2275 16.6637 40.1812 16.555C38.4562 13.5412 35.215 11.5 31.5 11.5C30.5488 11.5 29.6312 11.6425 28.7575 11.8912C26.6 7.835 22.4087 5.25 17.75 5.25C10.8575 5.25 5.25 10.8575 5.25 17.75C5.25 18.7075 5.3675 19.65 5.58125 20.5725C2.5 21.505 0.25 24.3688 0.25 27.75C0.25 31.8863 3.61375 35.25 7.75 35.25H16.8175C16.61 36.4863 16.5 37.7413 16.5 39C16.5 41.7512 17.0088 43.99 17.83 45.9025L6.67875 57.055L0.47375 73.1875C0.325 73.5725 0.25 73.9775 0.25 74.3912C0.25 76.2437 1.7575 77.75 3.60875 77.75C4.0225 77.75 4.4275 77.6737 4.81375 77.5262L20.9462 71.3212L29.1 63.1663C29.0387 63.435 29 63.7125 29 64C29 64.9638 29.3763 65.835 29.975 66.5C29.375 67.165 29 68.0362 29 69C29 70.7375 30.1937 72.19 31.8 72.6125C32.865 75.6625 35.7175 77.75 39 77.75C42.2825 77.75 45.135 75.6625 46.2 72.6125C47.8062 72.19 49 70.7375 49 69C49 68.9062 48.9788 68.8188 48.9725 68.7275L50.525 70.28L52.3462 68.46C53.035 67.77 54.0638 67.5687 55.0213 67.9675C55.9188 68.3412 56.5 69.2087 56.5 70.1812V72.75H64V70.1812C64 69.2087 64.5813 68.34 65.5275 67.9488C66.435 67.5713 67.4663 67.77 68.155 68.46L69.975 70.28L75.28 64.975L73.4613 63.155C72.7725 62.465 72.5712 61.4337 72.97 60.4787C73.3412 59.5812 74.2087 59 75.1812 59H77.75V51.5H75.1812C74.2087 51.5 73.3412 50.9187 72.95 49.9725V49.9725ZM54.22 53.6575C55.5837 52.3263 56.95 50.9662 58.1288 49.3937C58.8088 49.1462 59.5162 49 60.25 49C63.6962 49 66.5 51.8038 66.5 55.25C66.5 58.6962 63.6962 61.5 60.25 61.5C56.8038 61.5 54 58.6962 54 55.25C54 54.7088 54.0837 54.1763 54.22 53.6575V53.6575ZM55.7212 24.0475L61.5 18.2675L65.9825 22.75L59.3062 29.4262C58.37 27.4612 57.16 25.6538 55.7212 24.0475V24.0475ZM57.0175 10.25L59 8.2675L69.7325 19L67.75 20.9825L57.0175 10.25ZM67.6613 2.75C71.845 2.75 75.25 6.155 75.25 10.3388C75.25 12.365 74.4613 14.2713 73.0275 15.705L71.5 17.2325L60.7675 6.5L62.295 4.9725C63.7288 3.54 65.6338 2.75 67.6613 2.75V2.75ZM55.25 12.0175L59.7325 16.5L53.9563 22.2763C52.3513 20.8363 50.545 19.625 48.58 18.6875L55.25 12.0175ZM59 39C59 45.5038 55.725 48.6988 52.2575 52.08C49.87 54.4088 47.4175 56.8163 45.99 60.325C45.7512 60.2763 45.5037 60.25 45.25 60.25H40.25V54C40.25 51.9325 38.5675 50.25 36.5 50.25H34C33.3113 50.25 32.75 49.69 32.75 49C32.75 48.31 33.3113 47.75 34 47.75H46.5C48.5675 47.75 50.25 46.0675 50.25 44C50.25 41.9325 48.5675 40.25 46.5 40.25H36.5C35.8113 40.25 35.25 39.69 35.25 39V35.25H41.5C44.9462 35.25 47.75 32.4462 47.75 29C47.75 25.5538 44.9462 22.75 41.5 22.75C41.465 22.75 41.4325 22.76 41.3975 22.76C41.4512 22.3425 41.5 21.925 41.5 21.5C41.5 20.6825 41.39 19.8913 41.205 19.13C51.17 20.24 59 28.7925 59 39V39ZM31.5 64C31.5 63.31 32.0613 62.75 32.75 62.75H45.25C45.9387 62.75 46.5 63.31 46.5 64C46.5 64.69 45.9387 65.25 45.25 65.25H32.75C32.0613 65.25 31.5 64.69 31.5 64ZM15.7675 64L24.9562 54.8112C26.4937 56.3362 27.9213 57.8787 28.9738 59.7575L20.25 68.4825L15.7675 64ZM2.75 27.75C2.75 24.9925 4.9925 22.75 7.75 22.75C10.5075 22.75 12.75 24.9925 12.75 27.75H15.25C15.25 23.7225 12.0562 20.435 8.07 20.2663C7.8575 19.4488 7.75 18.605 7.75 17.75C7.75 12.2363 12.2363 7.75 17.75 7.75C21.4062 7.75 24.7062 9.7375 26.4612 12.8762C23.7962 14.44 21.9137 17.1937 21.5625 20.4075C19.38 20.945 17.75 22.9038 17.75 25.25H20.25C20.25 23.8712 21.3712 22.75 22.75 22.75C24.1288 22.75 25.25 23.8712 25.25 25.25H27.75C27.75 22.9562 26.19 21.04 24.0813 20.4525C24.5938 16.8125 27.72 14 31.5 14C35.6363 14 39 17.3637 39 21.5C39 22.1575 38.8925 22.8012 38.725 23.4287C36.675 24.455 35.25 26.555 35.25 29H37.75C37.75 26.9325 39.4325 25.25 41.5 25.25C43.5675 25.25 45.25 26.9325 45.25 29C45.25 31.0675 43.5675 32.75 41.5 32.75H7.75C4.9925 32.75 2.75 30.5075 2.75 27.75V27.75ZM32.75 35.25V39C32.75 41.0675 34.4325 42.75 36.5 42.75H46.5C47.1887 42.75 47.75 43.31 47.75 44C47.75 44.69 47.1887 45.25 46.5 45.25H34C31.9325 45.25 30.25 46.9325 30.25 49C30.25 51.0675 31.9325 52.75 34 52.75H36.5C37.1887 52.75 37.75 53.31 37.75 54V60.25H32.75C32.4963 60.25 32.2488 60.2763 32.01 60.325C30.5825 56.8163 28.13 54.4088 25.7425 52.08C22.275 48.6988 19 45.5038 19 39C19 37.7362 19.1513 36.4837 19.385 35.25H32.75ZM23.1712 53.0613L14 62.2325L9.5175 57.75L19.055 48.2125C20.2288 50.055 21.6837 51.5925 23.1712 53.0613V53.0613ZM8.22625 59.9937L18.0062 69.7737L9.72625 72.9587L5.04125 68.2737L8.22625 59.9937ZM3.9175 75.1925C3.37625 75.4025 2.75 74.9712 2.75 74.3912C2.75 74.285 2.77 74.1813 2.80625 74.0838L4.05875 70.8262L7.1725 73.94L3.9175 75.1925ZM39 75.25C37.1538 75.25 35.5075 74.2675 34.595 72.75H43.405C42.4925 74.2675 40.8462 75.25 39 75.25ZM45.25 70.25H32.75C32.0613 70.25 31.5 69.69 31.5 69C31.5 68.31 32.0613 67.75 32.75 67.75H45.25C45.9387 67.75 46.5 68.31 46.5 69C46.5 69.69 45.9387 70.25 45.25 70.25ZM75.25 56.5H75.1812C73.1925 56.5 71.4175 57.6875 70.6425 59.565C69.8725 61.4112 70.285 63.5137 71.6925 64.9225L71.745 64.975L69.975 66.745L69.9225 66.6925C68.5125 65.2825 66.4075 64.8687 64.5237 65.6587C62.6875 66.4187 61.5 68.1925 61.5 70.1812V70.25H59V70.1812C59 68.1925 57.8125 66.4175 55.935 65.6412C54.0863 64.87 51.9838 65.2837 50.5763 66.6925L50.5238 66.745L48.83 65.0512C48.93 64.715 49 64.3675 49 64C49 63.1125 48.6775 62.3075 48.16 61.6638C48.9375 59.565 50.1563 57.8862 51.575 56.3362C52.1125 60.6487 55.7937 64 60.25 64C65.075 64 69 60.0737 69 55.25C69 50.4263 65.075 46.5 60.25 46.5C60.1275 46.5 60.0087 46.5125 59.8875 46.5175C60.7337 44.7612 61.315 42.725 61.4613 40.25H61.5V40.3188C61.5 42.3075 62.6875 44.0838 64.5638 44.8575C66.4088 45.63 68.5137 45.2175 69.9225 43.8075L69.975 43.755L71.745 45.525L71.6925 45.5775C70.285 46.9863 69.8725 49.09 70.6587 50.975C71.4175 52.8125 73.1925 54 75.1812 54H75.25V56.5Z" fill="#1E959B"/>
</svg>
