<svg width="109" height="102" viewBox="0 0 109 102" fill="none" xmlns="http://www.w3.org/2000/svg">
<path d="M102.985 101.241H92.512C91.1237 101.239 89.7927 100.687 88.8109 99.7051C87.8292 98.7234 87.277 97.3923 87.2755 96.004V73.3121C87.277 71.9238 87.8292 70.5928 88.8109 69.6111C89.7927 68.6293 91.1237 68.0771 92.512 68.0756H102.985C104.374 68.0771 105.705 68.6293 106.686 69.6111C107.668 70.5928 108.22 71.9238 108.222 73.3121V96.004C108.22 97.3923 107.668 98.7234 106.686 99.7051C105.705 100.687 104.374 101.239 102.985 101.241V101.241ZM92.512 71.5666C92.0493 71.5671 91.6056 71.7512 91.2783 72.0785C90.9511 72.4057 90.767 72.8494 90.7665 73.3121V96.004C90.767 96.4668 90.9511 96.9105 91.2783 97.2377C91.6056 97.5649 92.0493 97.749 92.512 97.7495H102.985C103.448 97.749 103.892 97.5649 104.219 97.2377C104.546 96.9105 104.73 96.4668 104.731 96.004V73.3121C104.73 72.8494 104.546 72.4057 104.219 72.0785C103.892 71.7512 103.448 71.5671 102.985 71.5666H92.512Z" fill="#F8FFFF"/>
<path d="M97.7486 96.004C98.7126 96.004 99.4941 95.2225 99.4941 94.2585C99.4941 93.2944 98.7126 92.5129 97.7486 92.5129C96.7846 92.5129 96.0031 93.2944 96.0031 94.2585C96.0031 95.2225 96.7846 96.004 97.7486 96.004Z" fill="#F8FFFF"/>
<path d="M96.0031 75.0577C96.0031 76.0217 96.7846 76.8032 97.7486 76.8032C98.7126 76.8032 99.4941 76.0217 99.4941 75.0577C99.4941 74.0936 98.7126 73.3121 97.7486 73.3121C96.7846 73.3121 96.0031 74.0936 96.0031 75.0577Z" fill="#F8FFFF"/>
<path d="M3.49014 69.8211H3.48578L7.97835 90.7674L3.49014 69.8211ZM7.97835 90.7674V90.7936C8.15507 90.7762 8.33398 90.7674 8.51508 90.7674H7.97835ZM3.49014 69.8211H3.48578L7.97835 90.7674L3.49014 69.8211ZM7.97835 90.7674V90.7936C8.15507 90.7762 8.33398 90.7674 8.51508 90.7674H7.97835Z" fill="#F8FFFF"/>
<path d="M61.5398 90.7674H40.1811C40.1809 90.5217 40.1546 90.2766 40.1026 90.0364L35.6122 69.0901C35.4419 68.3106 35.0111 67.6124 34.3908 67.1107C33.7704 66.6089 32.9976 66.3335 32.1997 66.33H3.49013C2.96967 66.33 2.45579 66.4464 1.98613 66.6707C1.51647 66.8949 1.10292 67.2214 0.775749 67.6262C0.448583 68.031 0.216091 68.5038 0.0952972 69.01C-0.0254968 69.5163 -0.0315339 70.0431 0.0776276 70.552L4.5658 91.4984C4.62367 91.7688 4.71453 92.0312 4.83636 92.2795C4.09721 93.0089 3.59171 93.9417 3.38414 94.9592C3.17657 95.9767 3.27632 97.033 3.67069 97.9937C4.06507 98.9543 4.73625 99.776 5.59888 100.354C6.46151 100.932 7.4766 101.241 8.51507 101.241H61.5398C62.9287 101.241 64.2606 100.689 65.2427 99.7068C66.2247 98.7248 66.7764 97.3928 66.7764 96.004C66.7764 94.6152 66.2247 93.2832 65.2427 92.3012C64.2606 91.3191 62.9287 90.7674 61.5398 90.7674H61.5398ZM32.1997 69.8211L36.6879 90.7674H14.4106L9.91804 69.8211H32.1997H32.1997ZM3.48577 69.8211H6.42916C6.42928 70.0668 6.45562 70.3119 6.50774 70.552L10.8388 90.7674H8.51507C8.33395 90.7674 8.15504 90.7761 7.97832 90.7936V90.7674L3.48577 69.8211ZM35.3569 97.7495H8.51507C8.05213 97.7495 7.60815 97.5656 7.2808 97.2383C6.95345 96.9109 6.76954 96.4669 6.76954 96.004C6.76954 95.541 6.95345 95.0971 7.2808 94.7697C7.60815 94.4424 8.05213 94.2585 8.51507 94.2585H35.3569C35.8199 94.2585 36.2638 94.4424 36.5912 94.7697C36.9185 95.0971 37.1024 95.541 37.1024 96.004C37.1024 96.4669 36.9185 96.9109 36.5912 97.2383C36.2638 97.5656 35.8199 97.7495 35.3569 97.7495H35.3569ZM61.5398 97.7495H40.2924C40.6939 96.6205 40.6939 95.3875 40.2924 94.2585H61.5398C62.0028 94.2585 62.4468 94.4424 62.7741 94.7697C63.1015 95.0971 63.2854 95.541 63.2854 96.004C63.2854 96.4669 63.1015 96.9109 62.7741 97.2383C62.4468 97.5656 62.0028 97.7495 61.5398 97.7495Z" fill="#F8FFFF"/>
<path d="M79.4206 89.0219C77.0105 89.0219 75.0568 90.9757 75.0568 93.3858V93.8461C75.0539 94.6954 75.2891 95.5284 75.7357 96.2508C76.1823 96.9732 76.8224 97.5559 77.5834 97.9328C77.9353 98.1087 78.2175 98.3983 78.3843 98.7546C78.551 99.1109 78.5926 99.513 78.5021 99.8959C78.4117 100.279 78.1947 100.62 77.8861 100.864C77.5776 101.108 77.1957 101.241 76.8023 101.241H71.5657C70.6017 101.241 69.8202 100.459 69.8202 99.4951V98.7691C69.8202 98.206 70.2766 97.7496 70.8397 97.7496V97.7496C71.6154 97.7496 72.1215 96.9045 71.9003 96.161C71.6776 95.4126 71.564 94.633 71.5657 93.8461V93.8461C71.5657 91.1818 69.4059 89.0219 66.7415 89.0219H45.3828C44.4188 89.0219 43.6373 88.2404 43.6373 87.2764V87.2764C43.6373 86.3124 44.4188 85.5309 45.3828 85.5309H82.0389C83.0029 85.5309 83.7844 86.3124 83.7844 87.2764V87.2764C83.7844 88.2404 83.0029 89.0219 82.0389 89.0219H79.4206Z" fill="#F8FFFF"/>
<path d="M99.4941 62.839C99.4941 63.803 98.7126 64.5845 97.7486 64.5845V64.5845C96.7845 64.5845 96.003 63.803 96.003 62.839V47.5656C96.0024 46.9871 95.7723 46.4325 95.3633 46.0235C94.9542 45.6144 94.3996 45.3844 93.8211 45.3837H41.8917C40.5034 45.3853 39.1723 45.9375 38.1906 46.9192C37.2089 47.9009 36.6567 49.2319 36.6551 50.6203V61.0934C36.6551 62.0575 35.8736 62.839 34.9096 62.839V62.839C33.9456 62.839 33.1641 62.0575 33.1641 61.0934V50.6203C33.1667 48.3064 34.0871 46.088 35.7232 44.4518C37.3594 42.8156 39.5778 41.8953 41.8917 41.8926H93.8211C95.3252 41.8943 96.7671 42.4925 97.8307 43.5561C98.8942 44.6196 99.4924 46.0616 99.4941 47.5656V62.839Z" fill="#F8FFFF"/>
<path d="M82.0389 78.5487H43.6373C42.6732 78.5487 41.8917 79.3302 41.8917 80.2942C41.8917 81.2583 42.6732 82.0398 43.6373 82.0398H82.0389C83.0029 82.0398 83.7844 81.2583 83.7844 80.2942C83.7844 79.3302 83.0029 78.5487 82.0389 78.5487Z" fill="#F8FFFF"/>
<path d="M19.1998 27.9284C19.1996 28.6852 19.2343 29.4415 19.3038 30.1947C19.3545 30.7446 18.9722 31.2475 18.4249 31.3207L16.9459 31.5184C16.3987 31.5915 15.894 31.2076 15.8406 30.6581C15.8385 30.637 15.8365 30.6159 15.8345 30.5947C15.7669 29.8819 15.0161 29.4328 14.4112 29.8158C12.5085 31.0204 10.9667 32.7334 9.96898 34.774C8.74923 37.2686 8.41528 40.1042 9.0221 42.814C9.62893 45.5237 11.1404 47.9461 13.3075 49.6822C15.4747 51.4184 18.1685 52.3649 20.9454 52.3658H27.9275C28.8915 52.3658 29.673 53.1473 29.673 54.1113V54.1113C29.673 55.0754 28.8915 55.8569 27.9275 55.8569H20.9454C17.228 55.8563 13.6312 54.5377 10.7943 52.1354C7.95732 49.7332 6.06402 46.4029 5.45085 42.7364C4.83767 39.0699 5.54435 35.3048 7.44528 32.1102C9.23634 29.1002 11.9783 26.7804 15.2293 25.5101C15.5943 25.3675 15.8557 25.0377 15.9021 24.6487C16.6988 17.9773 19.8727 11.8073 24.8537 7.27702C29.7462 2.8272 36.0486 0.262621 42.6361 0.0190834C43.1885 -0.00133745 43.6372 0.44843 43.6372 1.00117V2.49215C43.6372 3.04401 43.1898 3.48941 42.6384 3.51253C36.5227 3.76892 30.7106 6.31105 26.3652 10.6564C21.7839 15.2378 19.207 21.4494 19.1998 27.9284Z" fill="#F8FFFF"/>
<path d="M99.0564 36.4669C99.2831 37.4049 98.5947 38.2826 97.6372 38.402V38.402C96.6823 38.5212 95.8234 37.8393 95.568 36.9115C94.9398 34.6296 93.6587 32.5658 91.8646 30.9842C89.6327 29.0165 86.7599 27.9301 83.7844 27.9284C83.2722 27.9294 82.7606 27.9629 82.2527 28.0288C82.0051 28.0598 81.7537 28.0372 81.5155 27.9628C81.2774 27.8883 81.0579 27.7637 80.872 27.5972C80.6861 27.4307 80.5381 27.2263 80.4379 26.9978C80.3377 26.7693 80.2876 26.5219 80.2912 26.2724L80.2933 26.1851C80.2944 24.9052 79.9435 23.6497 79.2789 22.5558C78.6144 21.462 77.6618 20.572 76.5253 19.9831C75.3889 19.3943 74.1125 19.1294 72.8356 19.2173C71.5587 19.3052 70.3306 19.7426 69.2856 20.4816C69.066 20.6369 68.8135 20.7393 68.5477 20.7809C68.282 20.8225 68.0102 20.8022 67.7537 20.7215C67.4971 20.6408 67.2626 20.502 67.0685 20.3158C66.8744 20.1296 66.7259 19.9011 66.6346 19.6481C64.9219 14.921 61.7966 10.8351 57.6826 7.9448C53.5686 5.05446 48.6651 3.49957 43.6373 3.49105V0C49.0348 0.00980503 54.3147 1.57856 58.8419 4.51762C63.3692 7.45668 66.9511 11.6409 69.1569 16.5672C70.6144 15.9382 72.1958 15.6487 73.7816 15.7205C75.3675 15.7922 76.9163 16.2234 78.3111 16.9814C79.7058 17.7394 80.9101 18.8045 81.833 20.0961C82.7558 21.3878 83.3731 22.8722 83.6382 24.4374H83.7844C87.6104 24.4403 91.3042 25.838 94.1736 28.3688C96.6039 30.5124 98.3017 33.3442 99.0564 36.4669Z" fill="#F8FFFF"/>
</svg>
