<svg width="21" height="21" viewBox="0 0 21 21" fill="none" xmlns="http://www.w3.org/2000/svg">
<path d="M20.3804 4.56615C20.3804 3.3447 19.9059 2.19754 19.0444 1.336C18.1828 0.474469 17.0357 0 15.8143 0C15.8142 0 15.8143 0 15.8143 0C14.5929 0 13.4456 0.47451 12.5842 1.336L11.1591 2.76105C10.9989 2.92121 10.9989 3.18093 11.1591 3.34113C11.3193 3.50126 11.579 3.5013 11.7391 3.34113L13.1642 1.91609C13.8708 1.20943 14.8119 0.820312 15.8143 0.820312C16.8166 0.820312 17.7577 1.20947 18.4643 1.91609C19.1709 2.6227 19.5601 3.56381 19.5601 4.56615C19.5601 5.56849 19.1709 6.50959 18.4643 7.21617L14.5371 11.1434C14.538 11.1049 14.5385 11.0663 14.5385 11.0276C14.5385 10.4209 14.4213 9.83259 14.1979 9.28844L17.3672 6.11908C17.7815 5.70478 18.0097 5.15329 18.0097 4.56611C18.0097 3.97893 17.7816 3.42735 17.3673 3.01309C16.511 2.15677 15.1176 2.15677 14.2613 3.01309L8.86725 8.40705C8.01093 9.26342 8.01093 10.6568 8.86725 11.5131C9.29541 11.9412 9.85786 12.1553 10.4203 12.1553C10.5571 12.1553 10.6939 12.1424 10.8288 12.1171L9.38511 13.5608C8.77607 13.3868 8.22125 13.0613 7.77016 12.6102C7.06355 11.9036 6.67443 10.9625 6.67443 9.96011C6.67443 8.95777 7.06359 8.01663 7.77016 7.31005L9.12955 5.95067C9.28971 5.7905 9.28975 5.53079 9.12959 5.37059C8.96938 5.2105 8.70971 5.21046 8.54954 5.37059L7.19012 6.72997C6.70429 7.21584 6.34159 7.79256 6.1176 8.42215L1.33604 13.2038C0.47451 14.0653 0 15.2125 0 16.4339C0 17.6553 0.474469 18.8025 1.336 19.664C2.19758 20.5255 3.34474 21 4.56615 21H4.56619C5.78755 21 6.9348 20.5255 7.79629 19.664L13.2025 14.2578C13.6883 13.7719 14.0511 13.1952 14.275 12.5656L19.0444 7.79625C19.9059 6.93472 20.3804 5.78755 20.3804 4.56615ZM14.8413 3.59317C15.3778 3.05673 16.2508 3.05673 16.7872 3.59317C17.0466 3.85252 17.1894 4.19807 17.1894 4.56615C17.1894 4.93422 17.0466 5.2797 16.7872 5.53908L13.7975 8.52887C13.6266 8.26814 13.4279 8.02298 13.2025 7.79756C12.7582 7.35332 12.2312 7.00908 11.6534 6.78107L14.8413 3.59317ZM9.44733 10.9331C9.19181 10.6776 9.0583 10.3458 9.04616 10.0103C9.58547 9.51878 10.4242 9.53355 10.9453 10.0547C11.2009 10.3103 11.3344 10.6421 11.3465 10.9776C11.0931 11.2087 10.7667 11.3353 10.4203 11.3353C10.0522 11.3352 9.70668 11.1924 9.44733 10.9331ZM8.7392 14.2067L5.53912 17.4068C5.27978 17.6662 4.93422 17.809 4.56615 17.809C4.19807 17.809 3.85256 17.6662 3.59321 17.4068C3.33383 17.1475 3.19102 16.8019 3.19102 16.4339C3.19102 16.0658 3.33383 15.7203 3.59321 15.4609L6.59519 12.4589C6.76606 12.7197 6.9647 12.9648 7.19012 13.1903C7.6344 13.6345 8.16149 13.9787 8.7392 14.2067ZM12.6224 13.6778L7.21625 19.0839C6.50963 19.7906 5.56849 20.1797 4.56615 20.1797C3.56381 20.1797 2.6227 19.7905 1.91609 19.0839C1.20947 18.3773 0.820354 17.4362 0.820354 16.4339C0.820354 15.4316 1.20951 14.4904 1.91613 13.7838L5.8556 9.84437C5.85465 9.88288 5.85416 9.92147 5.85416 9.96015C5.85416 10.5669 5.97134 11.1552 6.19475 11.6993L3.01321 14.8809C2.59891 15.2952 2.37074 15.8467 2.37074 16.4339C2.37074 17.0211 2.59891 17.5727 3.01317 17.9869C3.44137 18.415 4.00378 18.6291 4.56619 18.6291C5.12859 18.6291 5.69104 18.415 6.1192 17.9869L11.5254 12.5807C12.3818 11.7244 12.3818 10.331 11.5254 9.47469C10.9931 8.94235 10.2533 8.74117 9.56386 8.8707L11.0076 7.42699C11.6166 7.60097 12.1714 7.92652 12.6225 8.37761C13.3291 9.08418 13.7182 10.0253 13.7182 11.0277C13.7182 12.03 13.3291 12.9712 12.6224 13.6778Z" fill="#1E959B"/>
</svg>
