<svg width="41" height="28" viewBox="0 0 41 28" fill="none" xmlns="http://www.w3.org/2000/svg">
<path d="M26.8939 13.9561L40.1101 22.3112V5.24829L26.8939 13.9561Z" fill="#1E959B"/>
<path d="M0.907532 5.24829V22.3112L14.1237 13.9561L0.907532 5.24829Z" fill="#1E959B"/>
<path d="M37.6594 0.279297H3.35724C2.13461 0.279297 1.16435 1.19075 0.980591 2.36438L20.5083 15.2302L40.0361 2.36438C39.8523 1.19075 38.8821 0.279297 37.6594 0.279297Z" fill="#1E959B"/>
<path d="M24.6495 15.436L21.1825 17.7196C20.9767 17.8543 20.744 17.9205 20.5088 17.9205C20.2735 17.9205 20.0408 17.8543 19.835 17.7196L16.368 15.4336L0.985901 25.1632C1.17456 26.327 2.13992 27.2311 3.35765 27.2311H37.6598C38.8776 27.2311 39.8429 26.327 40.0316 25.1632L24.6495 15.436Z" fill="#1E959B"/>
</svg>
