<svg width="18" height="32" viewBox="0 0 18 32" fill="none" xmlns="http://www.w3.org/2000/svg">
<path d="M15.637 0H2.305C1.03 0 0 1.034 0 2.309V29.379C0 30.65 1.03 31.685 2.305 31.685H15.637C16.91 31.685 17.944 30.651 17.944 29.379V2.309C17.943 1.034 16.91 0 15.637 0ZM16.215 25.672H1.729V3.895H16.215V25.672ZM12.062 2.343H5.88099V1.669H12.063L12.062 2.343ZM14.707 2.035C14.707 2.361 14.441 2.625 14.116 2.625C13.79 2.625 13.525 2.36 13.525 2.035C13.525 1.71 13.79 1.445 14.116 1.445C14.442 1.444 14.707 1.709 14.707 2.035ZM11.785 29.225H6.15599V27.493H11.785V29.225Z" fill="#1E959B"/>
</svg>
