<svg width="198" height="14" viewBox="0 0 198 14" fill="none" xmlns="http://www.w3.org/2000/svg">
<path fill-rule="evenodd" clip-rule="evenodd" d="M7.82796 13.3429C4.38792 13.3429 -0.157869 12.4272 1.09856 8.47739L3.57346 0.686999H7.70211L5.40003 7.9074C4.90443 9.47497 5.98815 10.471 8.73857 10.471C11.5132 10.471 13.2164 9.46051 13.7136 7.9074L16.0097 0.686999H20.1114L17.6341 8.47739C16.4008 12.3713 11.3505 13.3429 7.82796 13.3429V13.3429ZM32.926 4.62551C32.6456 5.50826 31.9248 5.82332 31.322 5.82332H24.7709L25.4849 3.56428H31.9529C32.735 3.56428 33.1523 3.93602 32.926 4.62551ZM33.7186 0.686999H22.2773L18.3192 13.1291H22.4456L23.8523 8.69758H26.9606L29.2294 13.1291H34.6322L31.732 8.26843L32.4774 8.26874C34.3624 8.26874 36.2731 6.67185 36.9824 4.43132C37.8112 1.85235 36.1194 0.686999 33.7186 0.686999V0.686999ZM43.9842 8.24451L47.7485 3.99094L48.7953 8.24451H43.9842ZM50.9609 0.594116H46.7879L34.6641 13.1291H39.727L41.7045 10.8821H49.4135L49.9547 13.1291H55.094L50.9609 0.594116ZM55.9482 13.1293L59.908 0.686999H64.0245L61.0268 10.1043H72.0808L70.0954 13.1293H55.9482ZM78.7181 9.4733H87.832L85.8538 1.42247L78.7181 9.4733ZM186.247 13.1184C183.713 13.1184 181.528 12.8786 179.733 12.4034L180.533 11.2027C181.848 11.6349 183.929 12.2468 187.219 12.2468C189.786 12.2468 193.714 11.5155 194.4 9.5173C194.971 7.85051 191.256 7.71831 188.304 7.48969C185.677 7.27626 182.743 7.20917 181.924 5.82852C181.854 5.70942 181.621 5.35818 181.942 4.3374C182.632 2.14743 186.714 0.618039 191.869 0.618039C194.242 0.618039 196.488 0.85529 198 1.25314L197.244 2.45198C195.699 1.8589 193.374 1.5089 190.912 1.5089C188.056 1.5089 183.918 2.17999 183.367 3.91231C183.217 4.37755 183.204 4.72443 183.443 5.11343C184.022 6.05443 186.782 5.87969 189.581 5.93544C192.526 5.99452 195.841 6.12807 196.358 7.5158C196.404 7.63936 196.672 8.13602 196.357 9.13329C195.386 12.205 190.291 13.1184 186.247 13.1184V13.1184ZM162.218 12.9099L166.116 0.721115H179.711L179.424 1.62851H167.179L165.826 5.87969H178.084L177.795 6.79156H165.544L163.888 12.0037H176.132L175.843 12.9099H162.218ZM140.268 12.9099L144.172 0.594116L156.658 10.8711L159.925 0.720699H161.358L157.429 13.0449L144.823 2.55048L141.714 12.8883L140.268 12.9099ZM118.43 12.9099L122.305 0.720699H123.738L120.283 11.5875H131.683L131.258 12.9099H118.43ZM103.265 6.64231H112.134C113.432 6.64231 115.027 5.81115 115.429 4.52483C115.707 3.62877 116.435 1.90051 112.847 1.90051H104.756L103.265 6.64231ZM110.372 12.9091L107.794 7.8088H102.905L101.3 12.9091H99.8426L103.67 0.730476H114.145C115.437 0.730476 116.36 0.99113 116.77 1.58254C117.081 2.03167 117.544 2.93959 117.273 3.79976C116.617 5.89945 114.959 7.59246 113.251 7.59246H109.172L112.412 12.9023L110.372 12.9091ZM133.965 12.9099L137.823 0.720699H139.363L135.495 12.9099H133.965ZM93.0664 12.9099L96.9433 0.720699H98.4823L94.5953 12.9099H93.0664ZM88.6322 12.9099L88.0122 10.3567H78.0005L75.7521 12.9099H73.8734L84.6794 0.736925L87.1671 0.721115L90.3068 12.8812L88.6322 12.9099Z" fill="white"/>
</svg>
